<!DOCTYPE svg PUBLIC "-//W3C//DTD SVG 1.1//EN" "http://www.w3.org/Graphics/SVG/1.1/DTD/svg11.dtd">
<!-- Uploaded to: SVG Repo, www.svgrepo.com, Transformed by: SVG Repo Mixer Tools -->
<svg fill="#3c3c3e" height="800px" width="800px" version="1.1" id="Capa_1" xmlns="http://www.w3.org/2000/svg" xmlns:xlink="http://www.w3.org/1999/xlink" viewBox="0 0 442 442" xml:space="preserve">
<g id="SVGRepo_bgCarrier" stroke-width="0"/>
<g id="SVGRepo_tracerCarrier" stroke-linecap="round" stroke-linejoin="round"/>
<g id="SVGRepo_iconCarrier"> <path d="M402.5,150c16.542,0,30-13.458,30-30V70c0-16.542-13.458-30-30-30h-20.006C377.848,17.205,357.646,0,333.5,0h-242 c-27.57,0-50,22.43-50,50v11h-22c-5.522,0-10,4.477-10,10s4.478,10,10,10h22v80h-22c-5.522,0-10,4.477-10,10s4.478,10,10,10h22v80 h-22c-5.522,0-10,4.477-10,10s4.478,10,10,10h22v80h-22c-5.522,0-10,4.477-10,10s4.478,10,10,10h22v11c0,27.57,22.43,50,50,50h242 c24.146,0,44.348-17.205,48.994-40H402.5c16.542,0,30-13.458,30-30v-50c0-16.542-13.458-30-30-30h-19v-16h19 c16.542,0,30-13.458,30-30v-50c0-16.542-13.458-30-30-30h-19v-16H402.5z M412.5,70v50c0,5.514-4.486,10-10,10h-19V60h19 C408.014,60,412.5,64.486,412.5,70z M333.5,422h-190v-80c0-5.523-4.478-10-10-10s-10,4.477-10,10v80h-32c-16.542,0-30-13.458-30-30 v-11h22c5.522,0,10-4.477,10-10s-4.478-10-10-10h-22v-80h22c5.522,0,10-4.477,10-10s-4.478-10-10-10h-22v-80h22 c5.522,0,10-4.477,10-10s-4.478-10-10-10h-22V81h22c5.522,0,10-4.477,10-10s-4.478-10-10-10h-22V50c0-16.542,13.458-30,30-30h32 v287.892c0,5.523,4.478,10,10,10s10-4.477,10-10V20h190c16.542,0,30,13.458,30,30v342C363.5,408.542,350.042,422,333.5,422z M402.5,312c5.514,0,10,4.486,10,10v50c0,5.514-4.486,10-10,10h-19v-70H402.5z M402.5,186c5.514,0,10,4.486,10,10v50 c0,5.514-4.486,10-10,10h-19v-70H402.5z"/> </g>
</svg>